<svg xmlns="http://www.w3.org/2000/svg" width="1024" height="1024"><path fill="#fff" d="M238.67 102A136.666 136.666 0 0 0 102 238.67v546.66A136.666 136.666 0 0 0 238.67 922h546.66A136.666 136.666 0 0 0 922 785.33V238.67A136.666 136.666 0 0 0 785.33 102H512.003Z"/><path d="M347.1992 281.7715c-17.117 0-36.8411 4.9868-52.6308 18.5898-16.3688 14.1023-26.1993 35.487-26.1993 63.3848v52.4082c.0324 8.2034 1.4256 24.6163 6.1055 38.336 1.5324 4.4937 4.077 10.4307 8.17 15.8066-7.9323 15.717-11.7904 31.9137-13.4981 47.5488-1.4422 13.2047-1.4367 26.6195-1.2012 39.3926-19.1005 6.5774-35.137 12.7704-46.373 20.0293a20.93 20.93 0 0 0-6.2227 28.9394 20.93 20.93 0 0 0 28.9375 6.2227c1.3832-.8936 12.4625-6.077 25.5703-11.2383 1.9286 13.321 5.7466 25.4974 11.17 36.5352-6.0256 3.757-11.0656 7.1239-14.4473 9.3086a20.93 20.93 0 0 0-6.2227 28.9375 20.93 20.93 0 0 0 28.9375 6.2226c4.362-2.818 9.966-6.5444 16.1602-10.3437 16.4484 16.8066 36.835 29.8147 58.0508 39.5742 49.696 22.861 108.5513 30.8027 148.4882 30.8027 39.9341 0 98.7926-7.9418 148.4883-30.8027 21.2153-9.7591 41.6023-22.7666 58.0508-39.5723 6.1931 3.7984 11.7963 7.5227 16.1563 10.3399a20.93 20.93 0 0 0 28.9394-6.2207 20.93 20.93 0 0 0-6.2207-28.9375c-3.3816-2.185-8.42-5.552-14.4453-9.3086 5.4237-11.0384 9.2414-23.2153 11.17-36.5371 13.1114 5.162 24.1958 10.346 25.58 11.2402a20.93 20.93 0 0 0 28.9375-6.2246 20.93 20.93 0 0 0-6.2227-28.9375c-11.6508-7.5265-28.4316-13.9037-48.4726-20.7559s-39.3958-13.1172-57.4063-13.1172a20.93 20.93 0 0 0-20.9297 20.9297 20.93 20.93 0 0 0 20.9297 20.9297c2.2601 0 8.7415 1.178 16.9375 3.1367-.771 10.9136-3.4234 20.909-7.7597 30.0371-8.3701-3.12-17.3607-5.2675-27.1914-5.2675a20.93 20.93 0 0 0-20.9297 20.9296 20.93 20.93 0 0 0 17.2773 20.5723c-9.3266 7.0341-20.019 13.2712-31.8945 18.7344-42.722 19.6517-95.2125 26.9726-130.9942 26.9726-35.7816 0-88.2719-7.321-130.9941-26.9726-11.865-5.4579-22.5503-11.6881-31.871-18.7149a20.93 20.93 0 0 0 17.2538-20.5918 20.93 20.93 0 0 0-20.9297-20.9296c-9.8302 0-18.8213 2.1479-27.1914 5.2675-4.3353-9.1272-6.9867-19.1232-7.7578-30.0351 8.2-1.9597 14.686-3.1387 16.9473-3.1387a20.93 20.93 0 0 0 20.9297-20.9297 20.93 20.93 0 0 0-20.9297-20.9297c-5.7727 0-11.6855.6498-17.713 1.75.0044-7.6.1842-15.1021 1.0196-22.752 1.9671-18.0107 7.068-33.9992 19.0977-48.2148 4.3023-5.0845 9.6537-10.1403 16.371-15.0742 9.3175-6.8399 11.3238-19.9387 4.4825-29.2558-6.8413-9.3174-19.9404-11.3257-29.2578-4.4844-3.3269 2.4428-6.4088 4.976-9.377 7.5527-1.2367-6.3992-1.8306-13.0949-1.8457-16.9277V363.746c0-17.4502 5.7596-26.5865 11.6602-31.67 6.4799-5.5826 15.7043-8.4452 25.3105-8.4452 1.9635 0 6.8733 1.0766 15.461 4.957 8.0166 3.6223 16.971 8.6068 26.4277 14.0527 9.057 5.2157 18.936 11.0738 27.4434 15.457 4.3137 2.2228 8.8109 4.3514 13.1562 5.961 4.0121 1.486 9.5604 3.1758 15.5 3.1758 12.2925 0 20.2258-1.3196 28.4805-2.334 8.0566-.9898 18.5628-2.0215 38.3261-2.0215 19.7662 0 30.2696 1.0317 38.3262 2.0215 8.2547 1.0144 16.1924 2.334 28.4824 2.334 5.9413 0 11.488-1.6898 15.498-3.1758 4.3451-1.6096 8.842-3.7385 13.1563-5.961 8.5087-4.383 18.3877-10.2396 27.4434-15.455 9.4575-5.4454 18.413-10.4308 26.4277-14.0528 8.5868-3.8798 13.4983-4.955 15.463-4.955 9.6053 0 18.8286 2.861 25.3085 8.4433 5.9022 5.0835 11.6621 14.222 11.6621 31.6719v52.2383c-.0154 3.8332-.6104 10.5299-1.8476 16.9297-2.9684-2.577-6.05-5.1117-9.377-7.5547-9.318-6.8413-22.418-4.8347-29.2578 4.4824-6.8427 9.3174-4.8328 22.418 4.4824 29.2578 6.717 4.9339 12.0699 9.9897 16.373 15.0742l2.3614 2.791 3.17 1.8262c5.0426 2.905 11.2237 4.9953 18.164 4.6465 7.0826-.36 12.9853-3.1629 17.4531-6.746 8.0036-6.4214 12.0502-15.8034 14.2324-22.2052 4.68-13.7193 6.072-30.1325 6.1055-38.3359V363.75c0-27.8978-9.8321-49.2825-26.1992-63.3848-15.7895-13.6032-35.5159-18.5898-52.6309-18.5898-11.3998 0-23.1915 4.3729-32.6992 8.668-10.077 4.5532-20.6086 10.4692-30.08 15.9238-9.8734 5.685-18.365 10.7273-25.7266 14.5195-3.6195 1.865-6.4305 3.1433-8.5235 3.918-1.0736.3978-1.5137.499-1.7226.5508-8.5556-.0511-13.4277-.8736-22.6133-2.002-9.6724-1.1888-21.8851-2.336-43.4317-2.336s-33.7545 1.1472-43.4296 2.336c-9.1837 1.1285-14.0582 1.951-22.6153 2.002-.2093-.052-.65-.1534-1.7226-.5508-2.092-.7747-4.9018-2.053-8.5215-3.918-7.3603-3.7925-15.8544-8.8344-25.7266-14.5195-9.4725-5.4552-20.0047-11.3723-30.082-15.9258-9.5066-4.2954-21.2992-8.67-32.6973-8.67m81.5254 218.0195c-12.8608 0-22.3891 8.2998-27.3418 16.2969-4.9526 7.997-7.0898 16.9122-7.0898 26.4355 0 9.5228 2.1371 18.4391 7.0898 26.4356s14.481 16.295 27.3418 16.295c12.861 0 22.389-8.2986 27.3418-16.295s7.0918-16.9126 7.0918-26.4356c0-9.5235-2.1392-18.4405-7.0918-26.4375s-14.4808-16.2949-27.3418-16.2949m167.4375 0c-12.8616 0-22.388 8.3-27.3398 16.2969-4.9519 7.997-7.0899 16.9127-7.0899 26.4355 0 9.5223 2.138 18.4392 7.0899 26.4356s14.4782 16.295 27.3398 16.295c12.8596 0 22.3908-8.298 27.3438-16.295s7.0918-16.9133 7.0918-26.4356c0-9.5228-2.139-18.438-7.0918-26.4355-4.953-7.9975-14.4842-16.2969-27.3438-16.2969m-83.621 80.2305c-8.4062 0-16.0594 1.0949-23.4767 3.9687-3.7086 1.437-7.459 3.2467-11.3984 6.8555s-8.5605 10.324-8.5605 18.8262 4.621 15.2193 8.5605 18.8281 7.6899 5.4185 11.3985 6.8555c7.4172 2.8738 15.0704 3.9668 23.4765 3.9668s16.0594-1.0925 23.4766-3.9668c3.7085-1.4372 7.4593-3.2481 11.3984-6.8574 3.939-3.6094 8.5586-10.3261 8.5586-18.8262s-4.6195-15.2169-8.5586-18.8262-7.6899-5.4183-11.3984-6.8555c-7.4172-2.8743-15.0705-3.9687-23.4766-3.9687" fill="#81dad0"/></svg>
